<svg width="110" height="20" viewBox="0 0 110 20" fill="none" xmlns="http://www.w3.org/2000/svg">
<path d="M26.0677 0H16.4638L0 19.7436H9.60389L26.0677 0Z" fill="#FFFFFF"/>
<path d="M27.4397 0H29.269V19.7436H22.4091L15.5492 14.5727H22.4091L27.4397 0Z" fill="#FFFFFF"/>
<path d="M94.653 14.1686V8.2835H93.5766V6.24378H94.653V5.59174C94.653 4.7335 94.9036 4.02573 95.4048 3.46843C95.906 2.91113 96.6521 2.63248 97.6431 2.63248C98.0532 2.63248 98.4177 2.66592 98.7367 2.73279C99.0556 2.78852 99.3575 2.87212 99.6423 2.98358V4.78923C99.4714 4.7335 99.3062 4.68892 99.1468 4.65548C98.9873 4.62204 98.8107 4.60532 98.6171 4.60532C98.1728 4.60532 97.8596 4.68891 97.6773 4.8561C97.4951 5.01215 97.4039 5.27408 97.4039 5.6419V6.24378H99.4031L99.2834 8.2835H97.4039V14.1686H94.653Z" fill="#FFFFFF"/>
<path d="M55.2886 2.89998V14.1686H58.0395V8.76835C58.2446 8.56772 58.5009 8.40053 58.8084 8.26678C59.116 8.13303 59.4179 8.06615 59.714 8.06615C60.2152 8.06615 60.5626 8.16089 60.7563 8.35037C60.9499 8.53985 61.0468 8.86309 61.0468 9.32007V14.1686H63.7977V9.13616C63.7977 8.09959 63.5414 7.33051 63.0288 6.82895C62.5276 6.32738 61.7359 6.07659 60.6538 6.07659C60.1298 6.07659 59.64 6.14904 59.1843 6.29394C58.7287 6.42769 58.3471 6.60603 58.0395 6.82895V2.89998H55.2886Z" fill="#FFFFFF"/>
<path d="M51.7172 14.3358C50.7148 14.3358 49.9743 14.085 49.4959 13.5834C49.0289 13.0818 48.7954 12.3908 48.7954 11.5103V8.2835H47.7018V6.24378H48.7954V4.5886L51.5463 3.86968V6.24378H53.5112L53.3916 8.2835H51.5463V11.3264C51.5463 11.7053 51.6431 11.9728 51.8368 12.1289C52.0304 12.2738 52.3209 12.3462 52.7082 12.3462C53.0385 12.3462 53.3745 12.2905 53.7163 12.179V14.0014C53.1809 14.2243 52.5145 14.3358 51.7172 14.3358Z" fill="#FFFFFF"/>
<path fill-rule="evenodd" clip-rule="evenodd" d="M40.8237 14.3358C40.3111 14.3358 39.8327 14.2466 39.3885 14.0683C38.9556 13.8899 38.6082 13.6169 38.3462 13.249C38.0842 12.8701 37.9532 12.4019 37.9532 11.8446C37.9532 11.031 38.2323 10.3957 38.7905 9.93867C39.36 9.47054 40.2086 9.23648 41.3363 9.23648H43.5917V9.05257C43.5917 8.65131 43.4551 8.36709 43.1817 8.1999C42.9083 8.02157 42.3957 7.9324 41.6439 7.9324C40.7212 7.9324 39.8156 8.07172 38.9271 8.35037V6.6116C39.3258 6.45555 39.8099 6.32738 40.3795 6.22706C40.9604 6.12675 41.5699 6.07659 42.2077 6.07659C43.4608 6.07659 44.4404 6.32738 45.1466 6.82895C45.8642 7.33051 46.2231 8.12745 46.2231 9.21976V14.1686H43.8139L43.6772 13.4998C43.381 13.7673 42.9994 13.9735 42.5324 14.1184C42.0767 14.2633 41.5072 14.3358 40.8237 14.3358ZM41.6952 12.6806C42.128 12.6806 42.5039 12.6081 42.8229 12.4632C43.1418 12.3183 43.3981 12.1344 43.5917 11.9115V10.7913H41.6439C40.8351 10.7913 40.4308 11.109 40.4308 11.7443C40.4308 12.0341 40.5333 12.2626 40.7383 12.4298C40.9433 12.597 41.2623 12.6806 41.6952 12.6806Z" fill="#FFFFFF"/>
<path d="M68.4576 14.3358C67.5691 14.3358 66.9312 14.1463 66.5439 13.7673C66.1566 13.3884 65.963 12.7809 65.963 11.945V2.89998H68.7139V11.6775C68.7139 11.9338 68.7652 12.1121 68.8677 12.2125C68.9816 12.3016 69.1468 12.3462 69.3632 12.3462C69.6708 12.3462 69.9441 12.3072 70.1833 12.2292V14.0515C69.9214 14.1519 69.6594 14.2243 69.3974 14.2689C69.1468 14.3135 68.8335 14.3358 68.4576 14.3358Z" fill="#FFFFFF"/>
<path fill-rule="evenodd" clip-rule="evenodd" d="M72.6714 13.3159C73.5257 13.9958 74.6592 14.3358 76.0716 14.3358C76.7095 14.3358 77.2962 14.2912 77.8315 14.202C78.3669 14.124 78.8282 13.9958 79.2155 13.8175V12.062C78.908 12.1846 78.5207 12.2849 78.0537 12.3629C77.598 12.441 77.1481 12.48 76.7038 12.48C75.9065 12.48 75.2743 12.3796 74.8072 12.179C74.3516 11.9672 74.0611 11.5994 73.9358 11.0756H79.6769V9.65445C79.6769 8.56215 79.3238 7.69276 78.6175 7.04629C77.9113 6.39982 76.9146 6.07659 75.6274 6.07659C74.2149 6.07659 73.1555 6.44998 72.4493 7.19676C71.7431 7.94354 71.3899 8.94668 71.3899 10.2062C71.3899 11.5883 71.8171 12.6249 72.6714 13.3159ZM77.2848 9.5207H73.9358C73.9358 8.9634 74.0668 8.55657 74.3288 8.30021C74.5908 8.03271 75.0521 7.89896 75.7128 7.89896C76.2824 7.89896 76.6867 8.01599 76.926 8.25006C77.1652 8.47298 77.2848 8.77949 77.2848 9.1696V9.5207Z" fill="#FFFFFF"/>
<path d="M84.9203 14.3358C83.9179 14.3358 83.1775 14.085 82.699 13.5834C82.232 13.0818 81.9985 12.3908 81.9985 11.5103V8.2835H80.905V6.24378H81.9985V4.5886L84.7494 3.86968V6.24378H86.7144L86.5947 8.2835H84.7494V11.3264C84.7494 11.7053 84.8462 11.9728 85.0399 12.1289C85.2335 12.2738 85.524 12.3462 85.9113 12.3462C86.2416 12.3462 86.5777 12.2905 86.9194 12.179V14.0014C86.384 14.2243 85.7177 14.3358 84.9203 14.3358Z" fill="#FFFFFF"/>
<path d="M89.0385 2.96686V4.98986H92.0286V2.96686H89.0385Z" fill="#FFFFFF"/>
<path d="M89.2607 8.23334V14.1686H92.0116V6.24378H88.3038L88.0646 8.23334H89.2607Z" fill="#FFFFFF"/>
<path d="M101.696 17.0442C101.992 17.0888 102.345 17.1111 102.755 17.1111C103.462 17.1111 104.065 16.9606 104.566 16.6597C105.068 16.3699 105.506 15.9519 105.882 15.4058C106.258 14.8708 106.6 14.241 106.907 13.5165L110 6.24378H107.129L105.028 11.2762L102.892 6.24378H100.004L103.644 14.0181C103.405 14.4305 103.165 14.7147 102.926 14.8708C102.698 15.038 102.351 15.1216 101.884 15.1216C101.713 15.1216 101.542 15.1104 101.371 15.0881C101.212 15.0658 101.035 15.0212 100.842 14.9544V16.8269C101.126 16.9384 101.411 17.0108 101.696 17.0442Z" fill="#FFFFFF"/>
</svg>
